<svg width="40" height="540" viewBox="0 0 40 540" fill="none" xmlns="http://www.w3.org/2000/svg">
<line x1="20" y1="540" x2="20" y2="-8.74228e-08" stroke="url(#paint0_linear)" stroke-width="4"/>
<ellipse cx="20" cy="270.065" rx="20" ry="19.0646" transform="rotate(180 20 270.065)" fill="url(#paint1_linear)"/>
<path d="M31.1811 270.708C31.5716 270.317 31.5716 269.684 31.1811 269.293L24.8171 262.929C24.4266 262.539 23.7935 262.539 23.4029 262.929C23.0124 263.32 23.0124 263.953 23.4029 264.344L29.0598 270L23.4029 275.657C23.0124 276.048 23.0124 276.681 23.4029 277.072C23.7935 277.462 24.4266 277.462 24.8171 277.072L31.1811 270.708ZM20.474 271L30.474 271L30.474 269L20.474 269L20.474 271Z" fill="white"/>
<path d="M8.29302 270.708C7.90249 270.317 7.90249 269.684 8.29302 269.293L14.657 262.929C15.0475 262.539 15.6807 262.539 16.0712 262.929C16.4617 263.32 16.4617 263.953 16.0712 264.344L10.4143 270L16.0712 275.657C16.4617 276.048 16.4617 276.681 16.0712 277.072C15.6807 277.462 15.0475 277.462 14.657 277.072L8.29302 270.708ZM19.0001 271L9.00012 271L9.00012 269L19.0001 269L19.0001 271Z" fill="white"/>
<defs>
<linearGradient id="paint0_linear" x1="21.9982" y1="20.8421" x2="21.9997" y2="493.105" gradientUnits="userSpaceOnUse">
<stop stop-color="#E9BD00"/>
<stop offset="0.523958" stop-color="#FBA6CA"/>
<stop offset="1" stop-color="#00E6E9"/>
</linearGradient>
<linearGradient id="paint1_linear" x1="17.8947" y1="246.485" x2="19.8081" y2="289.138" gradientUnits="userSpaceOnUse">
<stop stop-color="#E9BD00"/>
<stop offset="0.497917" stop-color="#FBA6CA"/>
<stop offset="1" stop-color="#00E6E9"/>
</linearGradient>
</defs>
</svg>
