<svg width="1920" height="578" viewBox="0 0 1920 578" fill="none" xmlns="http://www.w3.org/2000/svg">
<path fill-rule="evenodd" clip-rule="evenodd" d="M0 654.654L-8 654.403V1.58309C2.92939 3.42914 13.4061 5.15975 23.3061 6.65557C82.8726 15.6556 289.323 67.4998 372.818 93.9998C456.313 120.5 666.577 214.5 684.396 278.5C702.215 342.5 1025.5 389.656 1108.49 307.656C1166.05 250.776 1246.52 212.18 1319.13 177.35C1351.2 161.968 1381.74 147.32 1408.1 132.156C1448.96 108.648 1493.84 106.791 1535.76 105.058C1582.11 103.141 1624.84 101.373 1654.51 70.6556C1684.54 39.5664 1836.99 19.1172 1947 5.76425V601.843L1917 605.442V578H0V654.654Z" fill="black"/>
<path d="M-8 654.403H-8.5V654.887L-8.01569 654.903L-8 654.403ZM0 654.654L-0.0156936 655.154L0.5 655.17V654.654H0ZM-8 1.58309L-7.91673 1.09007L-8.5 0.991554V1.58309H-8ZM23.3061 6.65557L23.2314 7.14996L23.2314 7.14996L23.3061 6.65557ZM1108.49 307.656L1108.14 307.3L1108.14 307.3L1108.49 307.656ZM1319.13 177.35L1319.35 177.801L1319.35 177.801L1319.13 177.35ZM1408.1 132.156L1407.85 131.722L1407.85 131.722L1408.1 132.156ZM1535.76 105.058L1535.78 105.557L1535.78 105.557L1535.76 105.058ZM1654.51 70.6556L1654.87 71.003L1654.87 71.003L1654.51 70.6556ZM1947 5.76425H1947.5V5.19989L1946.94 5.26789L1947 5.76425ZM1947 601.843L1947.06 602.34L1947.5 602.287V601.843H1947ZM1917 605.442H1916.5V606.006L1917.06 605.938L1917 605.442ZM1917 578H1917.5V577.5H1917V578ZM0 578V577.5H-0.5V578H0ZM-8.01569 654.903L-0.0156936 655.154L0.0156936 654.154L-7.98431 653.903L-8.01569 654.903ZM-8.5 1.58309V654.403H-7.5V1.58309H-8.5ZM23.3808 6.16119C13.4852 4.66603 3.01192 2.93599 -7.91673 1.09007L-8.08327 2.07611C2.84687 3.92228 13.327 5.65348 23.2314 7.14996L23.3808 6.16119ZM372.969 93.5232C289.461 67.019 82.9831 15.1666 23.3808 6.16119L23.2314 7.14996C82.7621 16.1446 289.185 67.9806 372.667 94.4764L372.969 93.5232ZM684.878 278.366C682.622 270.265 677.336 261.731 669.694 252.956C662.047 244.176 652.019 235.128 640.242 226.003C616.688 207.752 586.098 189.159 553.471 171.746C488.216 136.921 414.748 106.783 372.969 93.5232L372.667 94.4764C414.382 107.716 487.794 137.829 553 172.628C585.603 190.028 616.138 208.591 639.63 226.793C651.375 235.895 661.35 244.898 668.939 253.612C676.532 262.331 681.715 270.734 683.914 278.634L684.878 278.366ZM1108.14 307.3C1087.51 327.684 1051.88 340.093 1009.65 346.199C967.443 352.302 918.737 352.097 872.056 347.33C825.373 342.564 780.739 333.238 746.676 321.116C729.642 315.054 715.271 308.299 704.611 301.077C693.938 293.846 687.057 286.194 684.878 278.366L683.914 278.634C686.189 286.805 693.309 294.627 704.051 301.905C714.806 309.191 729.263 315.98 746.34 322.058C780.498 334.214 825.214 343.553 871.954 348.325C918.695 353.098 967.485 353.306 1009.79 347.189C1052.08 341.074 1087.98 328.627 1108.84 308.011L1108.14 307.3ZM1318.92 176.899C1246.32 211.721 1165.77 250.351 1108.14 307.3L1108.84 308.011C1166.33 251.201 1246.72 212.639 1319.35 177.801L1318.92 176.899ZM1407.85 131.722C1381.51 146.875 1350.99 161.515 1318.92 176.899L1319.35 177.801C1351.41 162.421 1381.97 147.764 1408.35 132.589L1407.85 131.722ZM1535.74 104.558C1493.84 106.291 1448.83 108.144 1407.85 131.722L1408.35 132.589C1449.09 109.151 1493.84 107.292 1535.78 105.557L1535.74 104.558ZM1654.15 70.3082C1624.64 100.856 1582.14 102.639 1535.74 104.558L1535.78 105.557C1582.08 103.642 1625.03 101.89 1654.87 71.003L1654.15 70.3082ZM1946.94 5.26789C1891.93 11.9444 1826.3 20.3966 1770.67 31.0678C1742.85 36.4032 1717.52 42.2957 1697.26 48.8023C1677.02 55.2998 1661.75 62.4369 1654.15 70.3082L1654.87 71.003C1662.28 63.3296 1677.33 56.2522 1697.56 49.7544C1717.77 43.2656 1743.06 37.382 1770.86 32.0499C1826.45 21.3859 1892.05 12.9371 1947.06 6.2606L1946.94 5.26789ZM1947.5 601.843V5.76425H1946.5V601.843H1947.5ZM1917.06 605.938L1947.06 602.34L1946.94 601.347L1916.95 604.946L1917.06 605.938ZM1916.5 578V605.442H1917.5V578H1916.5ZM0 578.5H1917V577.5H0V578.5ZM0.5 654.654V578H-0.5V654.654H0.5Z" fill="black"/>
</svg>
