<svg xmlns="http://www.w3.org/2000/svg" xmlns:xlink="http://www.w3.org/1999/xlink" viewBox="0 0 276.14 69.49">
  <defs>
    <style>
      .cls-1, .cls-2, .cls-3, .cls-4 {
        stroke: #000;
        stroke-miterlimit: 10;
      }

      .cls-1 {
        fill: url(#Безымянный_градиент_29);
      }

      .cls-2 {
        fill: url(#Безымянный_градиент_29-2);
      }

      .cls-3 {
        fill: url(#Безымянный_градиент_29-3);
      }

      .cls-4 {
        fill: url(#Безымянный_градиент_29-4);
      }
    </style>
    <linearGradient id="Безымянный_градиент_29" data-name="Безымянный градиент 29" x1="461.46" y1="127.29" x2="70.12" y2="1.29" gradientUnits="userSpaceOnUse">
      <stop offset="0" stop-color="#00e6e9"/>
      <stop offset="0.15" stop-color="#38c1f3"/>
      <stop offset="0.32" stop-color="#7f92ff"/>
      <stop offset="0.57" stop-color="#f894ff"/>
      <stop offset="0.79" stop-color="#ffb894"/>
      <stop offset="1" stop-color="#e9bd00"/>
    </linearGradient>
    <linearGradient id="Безымянный_градиент_29-2" x1="462.95" y1="122.65" x2="71.62" y2="-3.35" xlink:href="#Безымянный_градиент_29"/>
    <linearGradient id="Безымянный_градиент_29-3" x1="464.45" y1="117.98" x2="73.12" y2="-8.02" xlink:href="#Безымянный_градиент_29"/>
    <linearGradient id="Безымянный_градиент_29-4" x1="465.95" y1="113.34" x2="74.62" y2="-12.66" xlink:href="#Безымянный_градиент_29"/>
  </defs>
  <title>page-3Монтажная область 2</title>
  <g id="Слой_4" data-name="Слой 4">
    <g>
      <path class="cls-1" d="M85.34,19.59h94.81a25,25,0,0,1,21.65,12.5l1.24,2a30,30,0,0,0,26,15h35.3l.9,5H229a35,35,0,0,1-30.31-17.5l-1.24-2a20,20,0,0,0-17.32-10H85.34Z"/>
      <path class="cls-2" d="M85.34,14.59h94.81a30,30,0,0,1,26,15l1.24,2A25,25,0,0,0,229,44.09h38.45l.83,5H229a30,30,0,0,1-26-15l-1.24-2a25,25,0,0,0-21.65-12.5H85.34Z"/>
      <path class="cls-3" d="M85.34,9.57h94.81a35,35,0,0,1,30.31,17.5l1.24,2a20,20,0,0,0,17.32,10h36.2l-.9,5H229a25,25,0,0,1-21.65-12.5l-1.24-2a30,30,0,0,0-26-15H85.34Z"/>
      <path class="cls-4" d="M85.34,4.57h94.81a40,40,0,0,1,34.74,20.15L216,26.57a15,15,0,0,0,13,7.49h42.62l-4.42,5H229a20,20,0,0,1-17.32-10l-1.24-2A35,35,0,0,0,180.15,9.57H85.34Z"/>
    </g>
  </g>
</svg>
