<svg id="Слой_4" data-name="Слой 4" xmlns="http://www.w3.org/2000/svg" xmlns:xlink="http://www.w3.org/1999/xlink" viewBox="0 0 151.59 124.66">
  <defs>
    <style>
      .cls-1, .cls-2, .cls-3, .cls-4 {
        stroke: #000;
        stroke-miterlimit: 10;
      }

      .cls-1 {
        fill: url(#Безымянный_градиент_29);
      }

      .cls-2 {
        fill: url(#Безымянный_градиент_29-2);
      }

      .cls-3 {
        fill: url(#Безымянный_градиент_29-3);
      }

      .cls-4 {
        fill: url(#Безымянный_градиент_29-4);
      }
    </style>
    <linearGradient id="Безымянный_градиент_29" data-name="Безымянный градиент 29" x1="156.94" y1="89.18" x2="-234.39" y2="-36.82" gradientUnits="userSpaceOnUse">
      <stop offset="0" stop-color="#00e6e9"/>
      <stop offset="0.15" stop-color="#38c1f3"/>
      <stop offset="0.32" stop-color="#7f92ff"/>
      <stop offset="0.57" stop-color="#f894ff"/>
      <stop offset="0.79" stop-color="#ffb894"/>
      <stop offset="1" stop-color="#e9bd00"/>
    </linearGradient>
    <linearGradient id="Безымянный_градиент_29-2" x1="160.14" y1="79.24" x2="-231.19" y2="-46.76" xlink:href="#Безымянный_градиент_29"/>
    <linearGradient id="Безымянный_градиент_29-3" x1="161.67" y1="74.49" x2="-229.66" y2="-51.51" xlink:href="#Безымянный_градиент_29"/>
    <linearGradient id="Безымянный_градиент_29-4" x1="158.47" y1="84.43" x2="-232.87" y2="-41.57" xlink:href="#Безымянный_градиент_29"/>
  </defs>
  <title>page-3Монтажная область 2</title>
  <g>
    <path class="cls-1" d="M93.08,34.86v58A25,25,0,1,0,120.41,68l.15-5a30,30,0,1,1-32.48,29.9v-61a10,10,0,0,0-10-10H13.47l-.9-5H78.08a15,15,0,0,1,15,15v3Z"/>
    <path class="cls-2" d="M128.42,74.87A20,20,0,1,1,98.07,92V31.78a20,20,0,0,0-20-20H1.4l.67-5h76a25,25,0,0,1,25,25v60.3a15,15,0,1,0,22.75-12.85l-.26-.15Z"/>
    <path class="cls-3" d="M4,6.21l73.75.54h.2a25,25,0,0,1,25,25V92a15,15,0,1,0,19.49-14.32L120,82.15a10,10,0,1,1-12,9.8V31.75a30,30,0,0,0-30-30H7.74Z"/>
    <path class="cls-4" d="M131.6,71.93A25,25,0,1,1,93.13,93V31.75a15,15,0,0,0-15-15H9.77l-2-5H78.13a20,20,0,0,1,20,20V92a20,20,0,1,0,31.6-16.29Z"/>
  </g>
</svg>
