<svg id="Слой_4" data-name="Слой 4" xmlns="http://www.w3.org/2000/svg" xmlns:xlink="http://www.w3.org/1999/xlink" viewBox="0 0 79.41 101.8">
  <defs>
    <style>
      .cls-1 {
        fill: #fff;
      }

      .cls-1, .cls-2, .cls-3, .cls-4, .cls-5 {
        stroke: #000;
        stroke-miterlimit: 10;
        stroke-width: 2px;
      }

      .cls-2 {
        fill: #f5f5f5;
      }

      .cls-2, .cls-3 {
        stroke-linecap: square;
      }

      .cls-3 {
        fill: url(#Новый_образец_градиентной_залив);
      }

      .cls-4 {
        fill: url(#Новый_образец_градиентной_залив-2);
      }

      .cls-5 {
        fill: url(#Новый_образец_градиентной_залив-3);
      }

      .cls-6 {
        font-size: 21px;
        font-family: DeValencia-Regular, De Valencia;
        letter-spacing: -0.06em;
      }
    </style>
    <linearGradient id="Новый_образец_градиентной_залив" data-name="Новый образец градиентной залив" x1="1.83" y1="35.47" x2="52.27" y2="35.47" gradientUnits="userSpaceOnUse">
      <stop offset="0" stop-color="#00e6e9"/>
      <stop offset="0.24" stop-color="#38ccf7"/>
      <stop offset="0.36" stop-color="#55beff"/>
      <stop offset="0.71" stop-color="#ffb294"/>
      <stop offset="1" stop-color="#e9bd00"/>
    </linearGradient>
    <linearGradient id="Новый_образец_градиентной_залив-2" x1="24.48" y1="99.06" x2="52.23" y2="57.94" xlink:href="#Новый_образец_градиентной_залив"/>
    <linearGradient id="Новый_образец_градиентной_залив-3" x1="30.22" y1="102.93" x2="57.97" y2="61.81" xlink:href="#Новый_образец_градиентной_залив"/>
  </defs>
  <title>Монтажная область 2</title>
  <g id="Слой_5" data-name="Слой 5">
    <path class="cls-1" d="M60.85,3.09H14.58a8.35,8.35,0,0,0-8.35,8.35v11H48.09a4.18,4.18,0,0,1,4.18,4.18V44.35a4.18,4.18,0,0,1-4.18,4.17H6.23V84.73a8.35,8.35,0,0,0,8.35,8.36h19.1l-5.86-5.86a1.5,1.5,0,0,1,1.06-2.56H54.17a1.5,1.5,0,0,1,1.06,2.56l-5.86,5.86H69.24a8.36,8.36,0,0,0,8.36-8.36V19.84Z"/>
    <path class="cls-2" d="M69.77,19.84h6.48a.56.56,0,0,0,.4-1L61.8,4a.56.56,0,0,0-.95.4v6.48A8.92,8.92,0,0,0,69.77,19.84Z"/>
    <path class="cls-3" d="M1.83,22.41H48.27a4,4,0,0,1,4,4V44.52a4,4,0,0,1-4,4H1.83a0,0,0,0,1,0,0V22.41A0,0,0,0,1,1.83,22.41Z"/>
    <path class="cls-4" d="M37.73,59H46.1a4,4,0,0,1,4,4V84.67a0,0,0,0,1,0,0H33.73a0,0,0,0,1,0,0V63A4,4,0,0,1,37.73,59Z"/>
    <path class="cls-5" d="M42.58,99.87,55.23,87.23a1.5,1.5,0,0,0-1.06-2.56H28.88a1.5,1.5,0,0,0-1.06,2.56L40.46,99.87A1.49,1.49,0,0,0,42.58,99.87Z"/>
    <text class="cls-6" transform="translate(11.33 44.13)">PDF</text>
  </g>
</svg>
