<svg id="Слой_3" data-name="Слой 3" xmlns="http://www.w3.org/2000/svg" viewBox="0 0 190 189.77">
  <title>Монтажная область 1logo_black</title>
  <g>
    <path d="M113.25,117.77c-9.15.35-18.3.53-27.45.77s-18.3.39-27.46.57l-27.45.36-27.45.22h-1l-.58-.8-.25-.36L.51,117l1.55-1.12C12.05,108.59,22,101.23,32,94l15-10.85,15.1-10.76Q77.3,61.69,92.52,51.11c5.06-3.54,10.19-7,15.29-10.49s10.22-7,15.37-10.39c-4.84,3.85-9.73,7.63-14.63,11.41s-9.77,7.58-14.7,11.3Q79.1,64.19,64.2,75.23l-14.89,11-15,10.94c-10,7.33-20,14.51-30,21.76l.43-2.67.25.36-1.55-.8,27.45.21,27.45.36c9.16.18,18.31.31,27.46.57S104.1,117.42,113.25,117.77Z"/>
    <path d="M114,152.71,108.43,171l-5.62,18.27-.14.46-.51,0h-1.09l-.18-.49q-4.06-11.58-8-23.19T85,142.87c-5.26-15.49-10.38-31-15.54-46.54S59.19,65.27,54.21,49.69L46.69,26.34,39.28,3l-.36-1.13.89-.73.28-.23,1-.87,1.07.79L61.44,15.08,80.61,29.45C87,34.23,93.34,39.1,99.7,43.93s12.72,9.68,19,14.58C112.1,54,105.54,49.49,99,44.93S85.83,35.86,79.3,31.25L59.71,17.46,40.18,3.58l2.12-.07L42,3.74l.53-1.85L50.3,25.17,58,48.47C63.07,64,68,79.59,73.06,95.15S83,126.31,87.84,141.93q3.68,11.7,7.26,23.44t7.12,23.47l-.66-.48h.6l-.65.48,6.19-18.08Z"/>
    <path d="M122.19,160.34a71.22,71.22,0,0,1-36.06,5.2,77.07,77.07,0,0,1-35.28-13.23,80.21,80.21,0,0,1-25.44-28.78,80,80,0,0,1-6.9-18.25,85.16,85.16,0,0,1-2.35-19.4A85.17,85.17,0,0,1,18.5,66.47a80.68,80.68,0,0,1,6.9-18.26A80.33,80.33,0,0,1,50.84,19.43,77,77,0,0,1,86.13,6.19a71.23,71.23,0,0,1,36.06,5.22,90.84,90.84,0,0,0-17.69-.75,84.45,84.45,0,0,0-17,2.78A75.44,75.44,0,0,0,71.76,19.6,77.61,77.61,0,0,0,58,28.83a73.09,73.09,0,0,0-6,5.65,75.13,75.13,0,0,0-5.36,6.2,76,76,0,0,0-8.46,13.88,70,70,0,0,0-5.2,15.29,73.23,73.23,0,0,0,0,32.05,69.84,69.84,0,0,0,5.2,15.29,76.31,76.31,0,0,0,8.45,13.9,79.52,79.52,0,0,0,11.37,11.84,77.56,77.56,0,0,0,13.81,9.24,75.52,75.52,0,0,0,15.72,6.16,84.33,84.33,0,0,0,17,2.77A90,90,0,0,0,122.19,160.34Z"/>
  </g>
</svg>
