<svg width="1920" height="709" viewBox="0 0 1920 709" fill="none" xmlns="http://www.w3.org/2000/svg">
<rect y="317" width="1920" height="392" fill="white"/>
<circle cx="960" cy="337" r="70" fill="white"/>
<path d="M247 168C374 176 671 475 709 362C737.667 380.833 757.5 435.3 757.5 450.5C757.5 465.7 613.167 461.667 548.5 502H-65.5V206C-62 138.5 -46.4 2.99977 -12 0.999772C22.4 -1.00023 45.6667 43.1664 53 65.4998C75.3333 96.9998 145.4 161.6 247 168Z" fill="white"/>
<path d="M1388 190C1326 227.2 1280.83 317.833 1266 358.5L1370.5 434L1749 477L2025.5 358.5L2116.5 190L2051 1C2016.17 23.3333 1939.6 70.3998 1912 80C1877.5 92.0002 1860.5 72.9998 1783 67.9998C1721 63.9998 1643.83 85.6665 1613 96.9998C1563.83 112.5 1450 152.8 1388 190Z" fill="white"/>
</svg>
