<svg id="Слой_4" data-name="Слой 4" xmlns="http://www.w3.org/2000/svg" xmlns:xlink="http://www.w3.org/1999/xlink" viewBox="0 0 234.98 175.79">
  <defs>
    <style>
      .cls-1, .cls-10, .cls-11, .cls-12, .cls-13, .cls-14, .cls-15, .cls-16, .cls-17, .cls-18, .cls-19, .cls-2, .cls-20, .cls-21, .cls-22, .cls-23, .cls-3, .cls-4, .cls-5, .cls-6, .cls-7, .cls-8, .cls-9 {
        stroke: #000;
        stroke-miterlimit: 10;
      }

      .cls-2 {
        fill: url(#Новый_образец_градиентной_зал_3);
      }

      .cls-3 {
        fill: url(#Новый_образец_градиентной_зал_3-2);
      }

      .cls-4 {
        fill: url(#Новый_образец_градиентной_зал_3-3);
      }

      .cls-5 {
        fill: url(#Новый_образец_градиентной_зал_3-4);
      }

      .cls-6 {
        fill: url(#Новый_образец_градиентной_зал_3-5);
      }

      .cls-11, .cls-21, .cls-22, .cls-23, .cls-7 {
        stroke-width: 2px;
      }

      .cls-7 {
        fill: url(#Новый_образец_градиентной_зал_3-6);
      }

      .cls-8 {
        fill: url(#Новый_образец_градиентной_зал_3-7);
      }

      .cls-9 {
        fill: url(#Новый_образец_градиентной_зал_3-8);
      }

      .cls-10 {
        fill: url(#Новый_образец_градиентной_зал_3-9);
      }

      .cls-11 {
        fill: url(#Новый_образец_градиентной_зал_3-10);
      }

      .cls-12 {
        fill: url(#Новый_образец_градиентной_зал_3-11);
      }

      .cls-13 {
        fill: url(#Новый_образец_градиентной_зал_3-12);
      }

      .cls-14 {
        fill: url(#Новый_образец_градиентной_зал_3-13);
      }

      .cls-15 {
        fill: url(#Новый_образец_градиентной_зал_3-14);
      }

      .cls-16 {
        fill: url(#Новый_образец_градиентной_зал_3-15);
      }

      .cls-17 {
        fill: url(#Новый_образец_градиентной_зал_3-16);
      }

      .cls-18 {
        fill: url(#Новый_образец_градиентной_зал_3-17);
      }

      .cls-19 {
        fill: url(#Новый_образец_градиентной_зал_3-18);
      }

      .cls-20 {
        fill: url(#Новый_образец_градиентной_зал_3-19);
      }

      .cls-21 {
        fill: url(#Новый_образец_градиентной_зал_3-20);
      }

      .cls-22 {
        fill: url(#Новый_образец_градиентной_зал_3-21);
      }

      .cls-23 {
        fill: url(#Новый_образец_градиентной_зал_3-22);
      }
    </style>
    <linearGradient id="Новый_образец_градиентной_зал_3" data-name="Новый образец градиентной зал 3" x1="151.65" y1="152.71" x2="248.81" y2="55.54" gradientUnits="userSpaceOnUse">
      <stop offset="0" stop-color="#00e6e9"/>
      <stop offset="0.16" stop-color="#38c1f3"/>
      <stop offset="0.36" stop-color="#7f92ff"/>
      <stop offset="0.55" stop-color="#f894ff"/>
      <stop offset="0.84" stop-color="#ffb894"/>
      <stop offset="1" stop-color="#e9bd00"/>
    </linearGradient>
    <linearGradient id="Новый_образец_градиентной_зал_3-2" x1="89.04" y1="159.09" x2="-18.16" y2="51.89" xlink:href="#Новый_образец_градиентной_зал_3"/>
    <linearGradient id="Новый_образец_градиентной_зал_3-3" x1="157.22" y1="158.28" x2="254.39" y2="61.12" xlink:href="#Новый_образец_градиентной_зал_3"/>
    <linearGradient id="Новый_образец_градиентной_зал_3-4" x1="155.35" y1="156.41" x2="252.51" y2="59.25" xlink:href="#Новый_образец_градиентной_зал_3"/>
    <linearGradient id="Новый_образец_градиентной_зал_3-5" x1="153.49" y1="154.55" x2="250.66" y2="57.39" xlink:href="#Новый_образец_градиентной_зал_3"/>
    <linearGradient id="Новый_образец_градиентной_зал_3-6" x1="147.5" y1="165.26" x2="250.66" y2="62.1" xlink:href="#Новый_образец_градиентной_зал_3"/>
    <linearGradient id="Новый_образец_градиентной_зал_3-7" x1="83.46" y1="164.66" x2="-23.74" y2="57.47" xlink:href="#Новый_образец_градиентной_зал_3"/>
    <linearGradient id="Новый_образец_градиентной_зал_3-8" x1="85.33" y1="162.79" x2="-21.86" y2="55.59" xlink:href="#Новый_образец_градиентной_зал_3"/>
    <linearGradient id="Новый_образец_градиентной_зал_3-9" x1="87.19" y1="160.94" x2="-20.01" y2="53.74" xlink:href="#Новый_образец_градиентной_зал_3"/>
    <linearGradient id="Новый_образец_градиентной_зал_3-10" x1="93.36" y1="172.02" x2="-20.35" y2="58.31" xlink:href="#Новый_образец_градиентной_зал_3"/>
    <linearGradient id="Новый_образец_градиентной_зал_3-11" x1="128.05" y1="106.44" x2="258.7" y2="-24.21" xlink:href="#Новый_образец_градиентной_зал_3"/>
    <linearGradient id="Новый_образец_градиентной_зал_3-12" x1="124.68" y1="103.41" x2="256.72" y2="-28.63" xlink:href="#Новый_образец_градиентной_зал_3"/>
    <linearGradient id="Новый_образец_градиентной_зал_3-13" x1="121.47" y1="100.19" x2="253.51" y2="-31.85" xlink:href="#Новый_образец_градиентной_зал_3"/>
    <linearGradient id="Новый_образец_градиентной_зал_3-14" x1="103.01" y1="106.05" x2="-11.77" y2="-14.67" xlink:href="#Новый_образец_градиентной_зал_3"/>
    <linearGradient id="Новый_образец_градиентной_зал_3-15" x1="106.49" y1="103.05" x2="-9.51" y2="-18.95" xlink:href="#Новый_образец_градиентной_зал_3"/>
    <linearGradient id="Новый_образец_градиентной_зал_3-16" x1="109.83" y1="99.88" x2="-6.17" y2="-22.12" xlink:href="#Новый_образец_градиентной_зал_3"/>
    <linearGradient id="Новый_образец_градиентной_зал_3-17" x1="117.15" y1="200.5" x2="117.15" y2="64.82" xlink:href="#Новый_образец_градиентной_зал_3"/>
    <linearGradient id="Новый_образец_градиентной_зал_3-18" x1="117.15" y1="200.59" x2="117.15" y2="64.46" xlink:href="#Новый_образец_градиентной_зал_3"/>
    <linearGradient id="Новый_образец_градиентной_зал_3-19" x1="117.15" y1="200.29" x2="117.15" y2="64.87" xlink:href="#Новый_образец_градиентной_зал_3"/>
    <linearGradient id="Новый_образец_градиентной_зал_3-20" x1="109.52" y1="102.96" x2="-18.56" y2="-31.75" xlink:href="#Новый_образец_градиентной_зал_3"/>
    <linearGradient id="Новый_образец_градиентной_зал_3-21" x1="121.53" y1="103.52" x2="267.69" y2="-42.64" xlink:href="#Новый_образец_градиентной_зал_3"/>
    <linearGradient id="Новый_образец_градиентной_зал_3-22" x1="117.15" y1="207.88" x2="117.15" y2="48.22" xlink:href="#Новый_образец_градиентной_зал_3"/>
  </defs>
  <title>Монтажная область 2</title>
  <path class="cls-1" d="M119.45,67.8,134.3,81.69,207.87,2.12H28.3l73.57,79.57L116.72,67.8A2,2,0,0,1,119.45,67.8Z"/>
  <polygon class="cls-2" points="147.03 94.08 216.15 19.32 216.15 157.08 147.03 94.08"/>
  <polygon class="cls-3" points="87.27 94.08 18.15 19.32 18.15 157.08 87.27 94.08"/>
  <polygon class="cls-4" points="224.15 10.67 224.15 164.55 228.15 168.37 228.15 6.34 224.15 10.67"/>
  <polygon class="cls-5" points="220.15 15 220.15 160.8 224.15 164.55 224.15 10.67 220.15 15"/>
  <polygon class="cls-6" points="216.15 19.32 216.15 157.08 220.15 160.8 220.15 15 216.15 19.32"/>
  <path class="cls-7" d="M232.15,4.58V170.72c0,.87-4.13,1.32-6.69.73l-9.31-2.13V6.37l9.06-2.46C227.67,3.23,232.15,3.67,232.15,4.58Z"/>
  <polygon class="cls-8" points="10.15 10.67 10.15 164.55 6.15 168.37 6.15 6.34 10.15 10.67"/>
  <polygon class="cls-9" points="14.15 15 14.15 160.8 10.15 164.55 10.15 10.67 14.15 15"/>
  <polygon class="cls-10" points="18.15 19.32 18.15 157.08 14.15 160.8 14.15 15 18.15 19.32"/>
  <path class="cls-11" d="M2.15,4.58V170.86c0,.87,4.14,1.33,6.71.74l8-1.84c.82-.19,1.29-.45,1.29-.73V6.76c0-.25-.37-.49-1-.68l-8-2.17C6.63,3.24,2.15,3.67,2.15,4.58Z"/>
  <path class="cls-12" d="M225.85,2,143.62,91,147,94.08,230.6,3.69A1,1,0,0,0,229.87,2Z"/>
  <polygon class="cls-13" points="219.56 2.02 140.22 87.84 143.63 90.96 225.86 2.02 219.56 2.02"/>
  <polygon class="cls-14" points="213.25 2.02 136.8 84.71 140.21 87.84 219.55 2.02 213.25 2.02"/>
  <path class="cls-15" d="M8.75,2.34,90,90.22a1,1,0,0,1-.06,1.42L88,93.41a1,1,0,0,1-1.41-.06L3.7,3.69A1,1,0,0,1,4.44,2H8A1,1,0,0,1,8.75,2.34Z"/>
  <polygon class="cls-16" points="14.74 2.02 94.08 87.84 90.67 90.96 8.44 2.02 14.74 2.02"/>
  <polygon class="cls-17" points="21.05 2.02 97.51 84.71 94.1 87.84 14.75 2.02 21.05 2.02"/>
  <path class="cls-18" d="M7.44,171.45l109-99.83a1,1,0,0,1,1.35,0l109,99.83a1,1,0,0,0,.67.27h2a1,1,0,0,0,.67-1.74L117.83,67a1,1,0,0,0-1.35,0L4.05,170a1,1,0,0,0,.68,1.74h2A1,1,0,0,0,7.44,171.45Z"/>
  <polygon class="cls-19" points="222.15 171.72 117.15 75.58 12.15 171.72 7.15 171.72 117.15 71 227.15 171.72 222.15 171.72"/>
  <path class="cls-20" d="M217.15,171.72,117.83,80.78a1,1,0,0,0-1.35,0L17.15,171.64l-5,.08L116.48,76.2a1,1,0,0,1,1.35,0l104.32,95.52Z"/>
  <path class="cls-21" d="M3.7,3.69,87.33,94.14l13.61-12.55L27.67,2.34A1,1,0,0,0,26.93,2H4.44A1,1,0,0,0,3.7,3.69Z"/>
  <path class="cls-22" d="M133.37,81.59,147,94.14,230.6,3.69A1,1,0,0,0,229.87,2h-22.5a1,1,0,0,0-.73.32Z"/>
  <path class="cls-23" d="M118.88,65.77a1.19,1.19,0,0,0-1.6,0L2.15,171.24V173l1.23,0H232.15v-3.51Z"/>
</svg>
