<svg id="Слой_4" data-name="Слой 4" xmlns="http://www.w3.org/2000/svg" xmlns:xlink="http://www.w3.org/1999/xlink" viewBox="0 0 54.31 93.16">
  <defs>
    <style>
      .cls-1, .cls-2, .cls-3, .cls-4 {
        stroke: #000;
        stroke-miterlimit: 10;
        stroke-width: 2px;
      }

      .cls-1 {
        fill: url(#Новый_образец_градиентной_зал_3);
      }

      .cls-2 {
        fill: url(#Новый_образец_градиентной_зал_3-2);
      }

      .cls-3 {
        fill: url(#Новый_образец_градиентной_зал_3-3);
      }

      .cls-4 {
        fill: url(#Новый_образец_градиентной_зал_3-4);
      }
    </style>
    <linearGradient id="Новый_образец_градиентной_зал_3" data-name="Новый образец градиентной зал 3" x1="40.54" y1="-6.1" x2="40.54" y2="99.61" gradientUnits="userSpaceOnUse">
      <stop offset="0" stop-color="#00e6e9"/>
      <stop offset="0.16" stop-color="#38c1f3"/>
      <stop offset="0.36" stop-color="#7f92ff"/>
      <stop offset="0.55" stop-color="#f894ff"/>
      <stop offset="0.84" stop-color="#ffb894"/>
      <stop offset="1" stop-color="#e9bd00"/>
    </linearGradient>
    <linearGradient id="Новый_образец_градиентной_зал_3-2" x1="31.93" y1="-6.1" x2="31.93" y2="99.61" xlink:href="#Новый_образец_градиентной_зал_3"/>
    <linearGradient id="Новый_образец_градиентной_зал_3-3" x1="23.32" y1="-6.1" x2="23.32" y2="99.61" xlink:href="#Новый_образец_градиентной_зал_3"/>
    <linearGradient id="Новый_образец_градиентной_зал_3-4" x1="14.71" y1="-6.1" x2="14.71" y2="99.61" xlink:href="#Новый_образец_градиентной_зал_3"/>
  </defs>
  <title>Монтажная область 2</title>
  <g>
    <polygon class="cls-1" points="28.45 1.88 44 46.88 28.45 91.88 37.07 91.88 52.63 46.88 37.07 1.88 28.45 1.88"/>
    <polygon class="cls-2" points="19.84 1.88 35.4 46.88 19.84 91.88 28.47 91.88 44.02 46.88 28.47 1.88 19.84 1.88"/>
    <polygon class="cls-3" points="11.23 1.88 26.78 46.88 11.23 91.88 19.85 91.88 35.41 46.88 19.85 1.88 11.23 1.88"/>
    <polygon class="cls-4" points="2.63 1.88 18.18 46.88 2.63 91.88 11.25 91.88 26.8 46.88 11.25 1.88 2.63 1.88"/>
  </g>
</svg>
