<svg id="Слой_3" data-name="Слой 3" xmlns="http://www.w3.org/2000/svg" xmlns:xlink="http://www.w3.org/1999/xlink" viewBox="0 0 70.48 155.66">
  <defs>
    <style>
      .cls-1, .cls-2, .cls-3, .cls-4, .cls-5 {
        stroke: #fff;
        stroke-miterlimit: 10;
      }

      .cls-1 {
        fill: url(#Новый_образец_градиентной_зал_3);
      }

      .cls-2 {
        fill: url(#Новый_образец_градиентной_зал_3-2);
      }

      .cls-3 {
        fill: url(#Новый_образец_градиентной_зал_3-3);
      }

      .cls-4 {
        fill: url(#Новый_образец_градиентной_зал_3-4);
      }

      .cls-5 {
        fill: url(#Новый_образец_градиентной_зал_3-5);
      }
    </style>
    <linearGradient id="Новый_образец_градиентной_зал_3" data-name="Новый образец градиентной зал 3" x1="10.66" y1="138.2" x2="45.66" y2="39.7" gradientUnits="userSpaceOnUse">
      <stop offset="0" stop-color="#00e6e9"/>
      <stop offset="0.16" stop-color="#38c1f3"/>
      <stop offset="0.36" stop-color="#7f92ff"/>
      <stop offset="0.55" stop-color="#f894ff"/>
      <stop offset="0.84" stop-color="#ffb894"/>
      <stop offset="1" stop-color="#e9bd00"/>
    </linearGradient>
    <linearGradient id="Новый_образец_градиентной_зал_3-2" x1="15.38" y1="139.87" x2="50.38" y2="41.37" xlink:href="#Новый_образец_градиентной_зал_3"/>
    <linearGradient id="Новый_образец_градиентной_зал_3-3" x1="20.11" y1="141.55" x2="55.11" y2="43.05" xlink:href="#Новый_образец_градиентной_зал_3"/>
    <linearGradient id="Новый_образец_градиентной_зал_3-4" x1="24.62" y1="143.16" x2="59.62" y2="44.66" xlink:href="#Новый_образец_градиентной_зал_3"/>
    <linearGradient id="Новый_образец_градиентной_зал_3-5" x1="28.64" y1="148.34" x2="29.89" y2="89.84" xlink:href="#Новый_образец_градиентной_зал_3"/>
  </defs>
  <title>page-3Монтажная область 2</title>
  <path class="cls-1" d="M53.81.73v41A25,25,0,0,1,41.32,63.38l-2,1.23a30,30,0,0,0-15,26v35.3h-5V90.59A35,35,0,0,1,36.81,60.28l2-1.23a20,20,0,0,0,10-17.32V5.82Z"/>
  <path class="cls-2" d="M58.81,6.05V41.73a30,30,0,0,1-15,26l-2,1.23A25,25,0,0,0,29.32,90.59v35.3h-5V90.59a30,30,0,0,1,15-26l2-1.23A25,25,0,0,0,53.81,41.73V5.84Z"/>
  <path class="cls-3" d="M63.83,6.84V41.73A35,35,0,0,1,46.34,72l-2,1.23a20,20,0,0,0-10,17.32v35.3h-5V90.59a25,25,0,0,1,12.5-21.65l2-1.23a30,30,0,0,0,15-26V4.84Z"/>
  <path class="cls-4" d="M68.83.73v41A40,40,0,0,1,48.68,76.46L46.84,77.6a15,15,0,0,0-7.5,13v35.3h-5V90.59a20,20,0,0,1,10-17.32l2-1.23A35,35,0,0,0,63.83,41.73V2.86Z"/>
  <path class="cls-5" d="M3.91,125.89H54.28c2.64,0,3.28,1.54,1.42,3.41L31.45,153.77a3,3,0,0,1-4.24,0L2.51,129.32C.61,127.43,1.24,125.89,3.91,125.89Z"/>
</svg>
