<svg width="1920" height="595" viewBox="0 0 1920 595" fill="none" xmlns="http://www.w3.org/2000/svg">
<path fill-rule="evenodd" clip-rule="evenodd" d="M1920 301.055C1860.36 233.561 1773.15 191 1676 191C1496.23 191 1350.5 336.731 1350.5 516.5C1350.5 543.565 1353.8 569.859 1360.03 595H1920V301.055Z" fill="black"/>
<path fill-rule="evenodd" clip-rule="evenodd" d="M257.5 264.661C155.369 269.907 69.9509 343.866 0 413.561V595H1405.62L1609.5 435.16C1602.9 331.297 1384.5 121.161 1307 71.1606C1301.02 67.3031 1295.12 62.9558 1288.88 58.3628C1238.14 21.0086 1165.35 -32.588 851 29C786.332 56.4723 723.305 88.5003 661.428 119.944C522.848 190.365 390.04 257.853 257.5 264.661Z" fill="black"/>
</svg>
