<svg id="Слой_4" data-name="Слой 4" xmlns="http://www.w3.org/2000/svg" xmlns:xlink="http://www.w3.org/1999/xlink" viewBox="0 0 499.95 372.28">
  <defs>
    <style>
      .cls-1, .cls-10, .cls-11, .cls-12, .cls-13, .cls-14, .cls-15, .cls-16, .cls-17, .cls-18, .cls-19, .cls-2, .cls-3, .cls-4, .cls-5, .cls-6, .cls-7, .cls-8, .cls-9 {
        stroke: #000;
        stroke-miterlimit: 10;
      }

      .cls-1 {
        fill: url(#Новый_образец_градиентной_зал_3);
      }

      .cls-2 {
        fill: url(#Новый_образец_градиентной_зал_3-2);
      }

      .cls-3 {
        fill: url(#Новый_образец_градиентной_зал_3-3);
      }

      .cls-4 {
        fill: url(#Новый_образец_градиентной_зал_3-4);
      }

      .cls-5 {
        fill: url(#Безымянный_градиент_9);
      }

      .cls-6 {
        fill: url(#Безымянный_градиент_9-2);
      }

      .cls-7 {
        fill: url(#Безымянный_градиент_9-3);
      }

      .cls-8 {
        fill: url(#Безымянный_градиент_9-4);
      }

      .cls-9 {
        fill: url(#Новый_образец_градиентной_зал_3-5);
      }

      .cls-10 {
        fill: url(#Новый_образец_градиентной_зал_3-6);
      }

      .cls-11 {
        fill: url(#Новый_образец_градиентной_зал_3-7);
      }

      .cls-12 {
        fill: url(#Новый_образец_градиентной_зал_3-8);
      }

      .cls-13 {
        fill: url(#Безымянный_градиент_9-5);
      }

      .cls-14 {
        fill: url(#Безымянный_градиент_9-6);
      }

      .cls-15 {
        fill: url(#Безымянный_градиент_9-7);
      }

      .cls-16 {
        fill: url(#Безымянный_градиент_9-8);
      }

      .cls-17 {
        fill: url(#Новый_образец_градиентной_зал_3-9);
      }

      .cls-18 {
        fill: url(#Новый_образец_градиентной_зал_3-11);
      }

      .cls-19 {
        fill: url(#Новый_образец_градиентной_зал_3-12);
      }
    </style>
    <linearGradient id="Новый_образец_градиентной_зал_3" data-name="Новый образец градиентной зал 3" x1="23.34" y1="185.55" x2="88.34" y2="185.55" gradientUnits="userSpaceOnUse">
      <stop offset="0" stop-color="#00e6e9"/>
      <stop offset="0.16" stop-color="#38c1f3"/>
      <stop offset="0.36" stop-color="#7f92ff"/>
      <stop offset="0.55" stop-color="#f894ff"/>
      <stop offset="0.84" stop-color="#ffb894"/>
      <stop offset="1" stop-color="#e9bd00"/>
    </linearGradient>
    <linearGradient id="Новый_образец_градиентной_зал_3-2" x1="18.34" y1="185.55" x2="83.34" y2="185.55" xlink:href="#Новый_образец_градиентной_зал_3"/>
    <linearGradient id="Новый_образец_градиентной_зал_3-3" x1="13.39" y1="185.55" x2="78.39" y2="185.55" xlink:href="#Новый_образец_градиентной_зал_3"/>
    <linearGradient id="Новый_образец_градиентной_зал_3-4" x1="8.4" y1="185.55" x2="73.4" y2="185.55" xlink:href="#Новый_образец_градиентной_зал_3"/>
    <linearGradient id="Безымянный_градиент_9" data-name="Безымянный градиент 9" x1="85.84" y1="265.05" x2="85.84" y2="-9.62" gradientUnits="userSpaceOnUse">
      <stop offset="0" stop-color="#e9bd00"/>
      <stop offset="0.16" stop-color="#ffb894"/>
      <stop offset="0.45" stop-color="#f894ff"/>
      <stop offset="0.64" stop-color="#7f92ff"/>
      <stop offset="0.84" stop-color="#38c1f3"/>
      <stop offset="1" stop-color="#00e6e9"/>
    </linearGradient>
    <linearGradient id="Безымянный_градиент_9-2" x1="80.84" y1="265.05" x2="80.84" y2="-9.62" xlink:href="#Безымянный_градиент_9"/>
    <linearGradient id="Безымянный_градиент_9-3" x1="75.84" y1="265.05" x2="75.84" y2="-9.62" xlink:href="#Безымянный_градиент_9"/>
    <linearGradient id="Безымянный_градиент_9-4" x1="70.84" y1="265.05" x2="70.84" y2="-9.62" xlink:href="#Безымянный_градиент_9"/>
    <linearGradient id="Новый_образец_градиентной_зал_3-5" x1="423.34" y1="185.55" x2="488.34" y2="185.55" xlink:href="#Новый_образец_градиентной_зал_3"/>
    <linearGradient id="Новый_образец_градиентной_зал_3-6" x1="418.34" y1="185.55" x2="483.34" y2="185.55" xlink:href="#Новый_образец_градиентной_зал_3"/>
    <linearGradient id="Новый_образец_градиентной_зал_3-7" x1="413.39" y1="185.55" x2="478.39" y2="185.55" xlink:href="#Новый_образец_градиентной_зал_3"/>
    <linearGradient id="Новый_образец_градиентной_зал_3-8" x1="408.4" y1="185.55" x2="473.4" y2="185.55" xlink:href="#Новый_образец_градиентной_зал_3"/>
    <linearGradient id="Безымянный_градиент_9-5" x1="485.84" y1="265.05" x2="485.84" y2="-9.62" xlink:href="#Безымянный_градиент_9"/>
    <linearGradient id="Безымянный_градиент_9-6" x1="480.84" y1="265.05" x2="480.84" y2="-9.62" xlink:href="#Безымянный_градиент_9"/>
    <linearGradient id="Безымянный_градиент_9-7" x1="475.84" y1="265.05" x2="475.84" y2="-9.62" xlink:href="#Безымянный_градиент_9"/>
    <linearGradient id="Безымянный_градиент_9-8" x1="470.84" y1="265.05" x2="470.84" y2="-9.62" xlink:href="#Безымянный_градиент_9"/>
    <linearGradient id="Новый_образец_градиентной_зал_3-9" x1="248.37" y1="0.58" x2="248.37" y2="339.61" xlink:href="#Новый_образец_градиентной_зал_3"/>
    <linearGradient id="Новый_образец_градиентной_зал_3-11" x1="248.37" y1="0.58" x2="248.37" y2="339.74" xlink:href="#Новый_образец_градиентной_зал_3"/>
    <linearGradient id="Новый_образец_градиентной_зал_3-12" x1="248.37" y1="0.58" x2="248.37" y2="339.74" xlink:href="#Новый_образец_градиентной_зал_3"/>
  </defs>
  <title>Монтажная область 2</title>
  <g>
    <g>
      <polygon class="cls-1" points="83.34 364.05 83.34 209.05 83.34 194.05 23.34 194.05 23.34 189.05 23.34 7.05 28.34 7.05 28.34 189.05 88.34 189.05 88.34 209.05 88.34 364.05 83.34 364.05"/>
      <polygon class="cls-2" points="83.34 364.05 83.34 209.05 83.34 194.05 23.34 194.05 23.34 189.05 23.34 7.05 18.34 7.05 18.34 189.05 18.34 199.05 78.34 199.05 78.34 209.05 78.34 364.05 83.34 364.05"/>
      <polygon class="cls-3" points="78.39 364.05 78.39 209.05 78.39 199.05 18.39 199.05 18.39 189.05 18.39 7.05 13.39 7.05 13.39 189.05 13.39 204.05 73.39 204.05 73.39 209.05 73.39 364.05 78.39 364.05"/>
      <polygon class="cls-4" points="68.4 364.05 68.4 209.05 8.4 209.05 8.4 189.05 8.4 7.05 13.4 7.05 13.4 189.05 13.4 204.05 73.4 204.05 73.4 209.05 73.4 364.05 68.4 364.05"/>
      <rect class="cls-5" x="83.34" y="7.02" width="5" height="182"/>
      <rect class="cls-6" x="78.34" y="7.02" width="5" height="182"/>
      <rect class="cls-7" x="73.34" y="7.02" width="5" height="182"/>
      <rect class="cls-8" x="68.34" y="7.02" width="5" height="182"/>
    </g>
    <g>
      <polygon class="cls-9" points="483.34 364.05 483.34 209.05 483.34 194.05 423.34 194.05 423.34 189.05 423.34 7.05 428.34 7.05 428.34 189.05 488.34 189.05 488.34 209.05 488.34 364.05 483.34 364.05"/>
      <polygon class="cls-10" points="483.34 364.05 483.34 209.05 483.34 194.05 423.34 194.05 423.34 189.05 423.34 7.05 418.34 7.05 418.34 189.05 418.34 199.05 478.34 199.05 478.34 209.05 478.34 364.05 483.34 364.05"/>
      <polygon class="cls-11" points="478.39 364.05 478.39 209.05 478.39 199.05 418.39 199.05 418.39 189.05 418.39 7.05 413.39 7.05 413.39 189.05 413.39 204.05 473.39 204.05 473.39 209.05 473.39 364.05 478.39 364.05"/>
      <polygon class="cls-12" points="468.4 364.05 468.4 209.05 408.4 209.05 408.4 189.05 408.4 7.05 413.4 7.05 413.4 189.05 413.4 204.05 473.4 204.05 473.4 209.05 473.4 364.05 468.4 364.05"/>
      <rect class="cls-13" x="483.34" y="7.02" width="5" height="182"/>
      <rect class="cls-14" x="478.34" y="7.02" width="5" height="182"/>
      <rect class="cls-15" x="473.34" y="7.02" width="5" height="182"/>
      <rect class="cls-16" x="468.34" y="7.02" width="5" height="182"/>
    </g>
    <g>
      <path class="cls-17" d="M208.37,7.08V364h80V7.08Zm75,351.93h-70V12.08h70Z"/>
      <path class="cls-17" d="M213.37,12.08V359h70V12.08ZM279,354.15H217.74V16.94H279Z"/>
      <path class="cls-18" d="M217.74,16.94V354.15H279V16.94Zm57.43,332.49h-53.6V21.67h53.6Z"/>
      <path class="cls-19" d="M221.57,21.67V349.43h53.6V21.67Zm50.25,323.17h-46.9V26.26h46.9Z"/>
    </g>
  </g>
</svg>
