<svg width="1920" height="591" viewBox="0 0 1920 591" fill="none" xmlns="http://www.w3.org/2000/svg">
<path fill-rule="evenodd" clip-rule="evenodd" d="M1 591H1917V685.331L1921 684.843V1C1821.15 45.0882 1665.46 120.225 1633.75 153.656C1604.6 184.374 1562.64 186.141 1517.12 188.058C1475.95 189.791 1431.88 191.648 1391.75 215.156C1365.86 230.32 1335.87 244.968 1304.37 260.35C1233.06 295.18 1154.03 333.776 1097.5 390.656C1016 472.656 698.5 425.5 681 361.5C663.5 297.5 457 203.5 375 177C293 150.5 90.2457 98.6558 31.7457 89.6558C22.0229 88.1599 11.7337 86.4293 1 84.5833V591Z" fill="black"/>
<path d="M1 591H0.5V591.5H1V591ZM1917 591H1917.5V590.5H1917V591ZM1917 685.331H1916.5V685.896L1917.07 685.828L1917 685.331ZM1921 684.843L1921.06 685.34L1921.5 685.286V684.843H1921ZM1921 1H1921.5V0.232653L1920.8 0.542604L1921 1ZM1633.75 153.656L1634.11 154L1634.11 154L1633.75 153.656ZM1517.12 188.058L1517.14 188.557L1517.14 188.557L1517.12 188.058ZM1391.75 215.156L1392 215.587L1392 215.587L1391.75 215.156ZM1304.37 260.35L1304.15 259.901L1304.15 259.901L1304.37 260.35ZM1097.5 390.656L1097.85 391.008L1097.85 391.008L1097.5 390.656ZM31.7457 89.6558L31.8217 89.1616L31.8217 89.1616L31.7457 89.6558ZM1 84.5833L1.08475 84.0905L0.5 83.9899V84.5833H1ZM1 591.5H1917V590.5H1V591.5ZM1916.5 591V685.331H1917.5V591H1916.5ZM1917.07 685.828L1921.06 685.34L1920.94 684.347L1916.94 684.835L1917.07 685.828ZM1921.5 684.843V1H1920.5V684.843H1921.5ZM1920.8 0.542604C1870.87 22.5896 1806.97 52.4001 1751.59 80.8798C1723.91 95.1194 1698.34 109.029 1677.71 121.471C1657.1 133.905 1641.36 144.899 1633.38 153.312L1634.11 154C1641.99 145.697 1657.61 134.763 1678.23 122.328C1698.83 109.902 1724.37 96.0035 1752.05 81.7691C1807.41 53.3007 1871.28 23.4987 1921.2 1.4574L1920.8 0.542604ZM1633.38 153.312C1604.4 183.856 1562.67 185.639 1517.1 187.558L1517.14 188.557C1562.61 186.642 1604.8 184.891 1634.11 154L1633.38 153.312ZM1517.1 187.558C1475.95 189.291 1431.75 191.144 1391.49 214.724L1392 215.587C1432.01 192.151 1475.96 190.292 1517.14 188.557L1517.1 187.558ZM1391.49 214.724C1365.63 229.877 1335.65 244.516 1304.15 259.901L1304.59 260.8C1336.08 245.419 1366.09 230.763 1392 215.587L1391.49 214.724ZM1304.15 259.901C1232.86 294.723 1153.75 333.353 1097.15 390.303L1097.85 391.008C1154.32 334.199 1233.26 295.638 1304.59 260.8L1304.15 259.901ZM1097.15 390.303C1076.89 410.686 1041.9 423.093 1000.43 429.199C958.979 435.302 911.147 435.097 865.302 430.331C819.456 425.564 775.623 416.239 742.17 404.117C725.443 398.055 711.33 391.301 700.862 384.079C690.382 376.85 683.624 369.199 681.482 361.368L680.518 361.632C682.752 369.801 689.743 377.624 700.294 384.903C710.858 392.19 725.057 398.979 741.83 405.057C775.377 417.214 819.294 426.553 865.198 431.325C911.103 436.098 959.022 436.307 1000.57 430.189C1042.1 424.074 1077.36 411.626 1097.85 391.008L1097.15 390.303ZM681.482 361.368C679.268 353.269 674.077 344.735 666.571 335.959C659.061 327.179 649.212 318.132 637.646 309.006C614.513 290.755 584.47 272.161 552.426 254.748C488.339 219.922 416.186 189.785 375.154 176.524L374.846 177.476C415.814 190.715 487.911 220.828 551.949 255.627C583.968 273.026 613.956 291.589 637.026 309.791C648.561 318.892 658.357 327.895 665.811 336.609C673.267 345.327 678.357 353.731 680.518 361.632L681.482 361.368ZM375.154 176.524C293.14 150.02 90.3581 98.1672 31.8217 89.1616L31.6697 90.1499C90.1333 99.1443 292.86 150.98 374.846 177.476L375.154 176.524ZM31.8217 89.1616C22.1034 87.6664 11.8177 85.9364 1.08475 84.0905L0.915251 85.076C11.6497 86.9222 21.9424 88.6534 31.6697 90.1499L31.8217 89.1616ZM0.5 84.5833V591H1.5V84.5833H0.5Z" fill="black"/>
</svg>
