<svg id="Слой_4" data-name="Слой 4" xmlns="http://www.w3.org/2000/svg" xmlns:xlink="http://www.w3.org/1999/xlink" viewBox="0 0 119.98 133.66">
  <defs>
    <style>
      .cls-1, .cls-2, .cls-3, .cls-4, .cls-5 {
        stroke: #fff;
        stroke-miterlimit: 10;
      }

      .cls-1 {
        fill: url(#Новый_образец_градиентной_зал_3);
      }

      .cls-2 {
        fill: url(#Новый_образец_градиентной_зал_3-2);
      }

      .cls-3 {
        fill: url(#Новый_образец_градиентной_зал_3-3);
      }

      .cls-4 {
        fill: url(#Новый_образец_градиентной_зал_3-4);
      }

      .cls-5 {
        fill: url(#Новый_образец_градиентной_зал_3-5);
      }
    </style>
    <linearGradient id="Новый_образец_градиентной_зал_3" data-name="Новый образец градиентной зал 3" x1="118.27" y1="85.86" x2="35.21" y2="12.36" gradientUnits="userSpaceOnUse">
      <stop offset="0" stop-color="#00e6e9"/>
      <stop offset="0.16" stop-color="#38c1f3"/>
      <stop offset="0.36" stop-color="#7f92ff"/>
      <stop offset="0.55" stop-color="#f894ff"/>
      <stop offset="0.84" stop-color="#ffb894"/>
      <stop offset="1" stop-color="#e9bd00"/>
    </linearGradient>
    <linearGradient id="Новый_образец_градиентной_зал_3-2" x1="121.24" y1="82.89" x2="37.24" y2="8.55" xlink:href="#Новый_образец_градиентной_зал_3"/>
    <linearGradient id="Новый_образец_градиентной_зал_3-3" x1="112.15" y1="91.55" x2="30.99" y2="19.73" xlink:href="#Новый_образец_градиентной_зал_3"/>
    <linearGradient id="Новый_образец_градиентной_зал_3-4" x1="115.14" y1="88.64" x2="33.41" y2="16.32" xlink:href="#Новый_образец_градиентной_зал_3"/>
    <linearGradient id="Новый_образец_градиентной_зал_3-5" x1="67.4" y1="123.41" x2="68.65" y2="64.91" xlink:href="#Новый_образец_градиентной_зал_3"/>
  </defs>
  <title>page-3Монтажная область 2</title>
  <g>
    <path class="cls-1" d="M6.11,16H93.2a15,15,0,0,1,15,15V41a15,15,0,0,1-15,15h-10a15,15,0,0,0-15,15v30h5V71a10,10,0,0,1,10-10h10a20,20,0,0,0,20-20V31a20,20,0,0,0-20-20H4.74Z"/>
    <path class="cls-2" d="M3.2,5.86h90a25,25,0,0,1,25,25v10a25,25,0,0,1-25,25h-10a5,5,0,0,0-5,5V101h-5V71a10,10,0,0,1,10-10h10a20,20,0,0,0,20-20V31a20,20,0,0,0-20-20H8.11Z"/>
    <path class="cls-3" d="M9.32,21H93.2a10,10,0,0,1,10,10V41a10,10,0,0,1-10,10h-10a20,20,0,0,0-20,20v30h-5V71a25,25,0,0,1,25-25h10a5,5,0,0,0,5-5V31a5,5,0,0,0-5-5H3.2Z"/>
    <path class="cls-4" d="M4.15,21H93.2a10,10,0,0,1,10,10V41a10,10,0,0,1-10,10h-10a20,20,0,0,0-20,20v30h5V71a15,15,0,0,1,15-15h10a15,15,0,0,0,15-15V31a15,15,0,0,0-15-15H7Z"/>
    <path class="cls-5" d="M42.68,101H93.05c2.64,0,3.27,1.54,1.42,3.41L70.22,128.83a3,3,0,0,1-4.25,0l-24.7-24.46C39.37,102.5,40,101,42.68,101Z"/>
  </g>
</svg>
