<svg id="Слой_4" data-name="Слой 4" xmlns="http://www.w3.org/2000/svg" xmlns:xlink="http://www.w3.org/1999/xlink" viewBox="0 0 53.8 78.82">
  <defs>
    <style>
      .cls-1, .cls-2, .cls-3, .cls-4, .cls-5 {
        stroke: #000;
        stroke-miterlimit: 10;
      }

      .cls-1 {
        fill: url(#Новый_образец_градиентной_зал_3);
      }

      .cls-2 {
        fill: url(#Новый_образец_градиентной_зал_3-2);
      }

      .cls-3 {
        fill: url(#Новый_образец_градиентной_зал_3-3);
      }

      .cls-4 {
        fill: url(#Новый_образец_градиентной_зал_3-4);
      }

      .cls-5 {
        fill: url(#Новый_образец_градиентной_зал_3-5);
      }
    </style>
    <linearGradient id="Новый_образец_градиентной_зал_3" data-name="Новый образец градиентной зал 3" x1="1529.08" y1="1049.6" x2="1529.08" y2="991.05" gradientTransform="translate(1551.68 1071.05) rotate(180)" gradientUnits="userSpaceOnUse">
      <stop offset="0" stop-color="#00e6e9"/>
      <stop offset="0.16" stop-color="#38c1f3"/>
      <stop offset="0.36" stop-color="#7f92ff"/>
      <stop offset="0.55" stop-color="#f894ff"/>
      <stop offset="0.84" stop-color="#ffb894"/>
      <stop offset="1" stop-color="#e9bd00"/>
    </linearGradient>
    <linearGradient id="Новый_образец_градиентной_зал_3-2" x1="1534" y1="1049.6" x2="1534" y2="991.05" xlink:href="#Новый_образец_градиентной_зал_3"/>
    <linearGradient id="Новый_образец_градиентной_зал_3-3" x1="1519.18" y1="1049.6" x2="1519.18" y2="991.05" xlink:href="#Новый_образец_градиентной_зал_3"/>
    <linearGradient id="Новый_образец_градиентной_зал_3-4" x1="1524.18" y1="1049.6" x2="1524.18" y2="991.05" xlink:href="#Новый_образец_градиентной_зал_3"/>
    <linearGradient id="Новый_образец_градиентной_зал_3-5" x1="1524.14" y1="1062.17" x2="1525.22" y2="1011.31" xlink:href="#Новый_образец_градиентной_зал_3"/>
  </defs>
  <title>Монтажная область 2</title>
  <g>
    <path class="cls-1" d="M25.19,65.76a13.41,13.41,0,0,0,2.09-7.14v-30h-5.8v30a9.37,9.37,0,0,1-3.56,7.2S24.32,67.13,25.19,65.76Z"/>
    <path class="cls-2" d="M13.88,62.34a4.69,4.69,0,0,0,1.8-3.62V28.62h5.8v30a9,9,0,0,1-1.89,5.47C19.11,64.72,13.88,62.34,13.88,62.34Z"/>
    <path class="cls-3" d="M26.13,72.89a18.69,18.69,0,0,0,7-14.27v-30h5.8v30a23.38,23.38,0,0,1-8.65,17.81Z"/>
    <path class="cls-4" d="M27.89,71.23a18.34,18.34,0,0,0,5.19-12.61v-30h-5.8v30A13.92,13.92,0,0,1,22.6,68.85q-.33.32-.69.6S27.34,71.81,27.89,71.23Z"/>
    <path class="cls-5" d="M49,28.4H5.31c-2.29,0-2.84-1.34-1.23-3l21-21.26a2.6,2.6,0,0,1,3.68,0L50.2,25.42C51.85,27.06,51.3,28.4,49,28.4Z"/>
  </g>
</svg>
